<svg width="24" height="24" viewBox="0 0 24 24" fill="none" xmlns="http://www.w3.org/2000/svg">
<path d="M4.29303 15.7068C4.48056 15.8943 4.73487 15.9996 5.00003 15.9996C5.26519 15.9996 5.5195 15.8943 5.70703 15.7068L12 9.41379L18.293 15.7068C18.4816 15.8889 18.7342 15.9897 18.9964 15.9875C19.2586 15.9852 19.5094 15.88 19.6948 15.6946C19.8803 15.5092 19.9854 15.2584 19.9877 14.9962C19.99 14.734 19.8892 14.4814 19.707 14.2928L12.707 7.29279C12.5195 7.10532 12.2652 7 12 7C11.7349 7 11.4806 7.10532 11.293 7.29279L4.29303 14.2928C4.10556 14.4803 4.00024 14.7346 4.00024 14.9998C4.00024 15.265 4.10556 15.5193 4.29303 15.7068Z" fill="#292D33"/>
</svg>
