<svg width="24" height="24" viewBox="0 0 24 24" fill="none" xmlns="http://www.w3.org/2000/svg">
<path d="M10.2953 19.715C10.4851 19.8963 10.7386 19.9957 11.001 19.9918C11.2635 19.9878 11.5138 19.8809 11.6981 19.694C11.8824 19.5071 11.9858 19.2552 11.986 18.9928C11.9862 18.7303 11.8833 18.4783 11.6993 18.291L6.32932 12.999H19.9993C20.2645 12.999 20.5189 12.8937 20.7064 12.7061C20.894 12.5186 20.9993 12.2643 20.9993 11.999C20.9993 11.7338 20.894 11.4795 20.7064 11.2919C20.5189 11.1044 20.2645 10.999 19.9993 10.999H6.33632L11.7003 5.71404C11.8843 5.52682 11.9872 5.27478 11.987 5.01232C11.9868 4.74985 11.8834 4.498 11.6991 4.31109C11.5148 4.12419 11.2645 4.01724 11.002 4.0133C10.7396 4.00936 10.4861 4.10875 10.2963 4.29004L3.37032 11.112C3.25241 11.2283 3.15877 11.3669 3.09487 11.5197C3.03096 11.6725 2.99805 11.8364 2.99805 12.002C2.99805 12.1677 3.03096 12.3316 3.09487 12.4844C3.15877 12.6372 3.25241 12.7757 3.37032 12.892L10.2943 19.715H10.2953Z" fill="#292D33"/>
</svg>
