<svg width="24" height="24" viewBox="0 0 24 24" fill="none" xmlns="http://www.w3.org/2000/svg">
<path d="M4.29303 8.29308C4.48056 8.10561 4.73487 8.00029 5.00003 8.00029C5.26519 8.00029 5.5195 8.10561 5.70703 8.29308L12 14.5861L18.293 8.29308C18.3853 8.19757 18.4956 8.12139 18.6176 8.06898C18.7396 8.01657 18.8709 7.98898 19.0036 7.98783C19.1364 7.98668 19.2681 8.01198 19.391 8.06226C19.5139 8.11254 19.6255 8.18679 19.7194 8.28069C19.8133 8.37458 19.8876 8.48623 19.9379 8.60913C19.9881 8.73202 20.0134 8.8637 20.0123 8.99648C20.0111 9.12926 19.9835 9.26048 19.9311 9.38249C19.8787 9.50449 19.8025 9.61483 19.707 9.70708L12.707 16.7071C12.5195 16.8946 12.2652 16.9999 12 16.9999C11.7349 16.9999 11.4806 16.8946 11.293 16.7071L4.29303 9.70708C4.10556 9.51955 4.00024 9.26525 4.00024 9.00008C4.00024 8.73492 4.10556 8.48061 4.29303 8.29308Z" fill="#292D33"/>
</svg>
