<svg width="20" height="20" viewBox="0 0 20 20" fill="none" xmlns="http://www.w3.org/2000/svg">
<path d="M10 16C10.7879 16 11.5681 15.8448 12.2961 15.5433C13.0241 15.2417 13.6855 14.7998 14.2426 14.2426C14.7998 13.6855 15.2417 13.0241 15.5433 12.2961C15.8448 11.5681 16 10.7879 16 10C16 9.21207 15.8448 8.43185 15.5433 7.7039C15.2417 6.97595 14.7998 6.31451 14.2426 5.75736C13.6855 5.20021 13.0241 4.75825 12.2961 4.45672C11.5681 4.15519 10.7879 4 10 4C8.4087 4 6.88258 4.63214 5.75736 5.75736C4.63214 6.88258 4 8.4087 4 10C4 11.5913 4.63214 13.1174 5.75736 14.2426C6.88258 15.3679 8.4087 16 10 16Z" fill="#292D33"/>
</svg>
