<svg width="28" height="28" viewBox="0 0 28 28" fill="none" xmlns="http://www.w3.org/2000/svg">
<path d="M9.54303 4.29279C9.73056 4.10532 9.98487 4 10.25 4C10.5152 4 10.7695 4.10532 10.957 4.29279L19.707 13.0428C19.8945 13.2303 19.9998 13.4846 19.9998 13.7498C19.9998 14.015 19.8945 14.2693 19.707 14.4568L10.957 23.2068C10.7684 23.3889 10.5158 23.4897 10.2536 23.4875C9.99143 23.4852 9.74062 23.38 9.55521 23.1946C9.3698 23.0092 9.26464 22.7584 9.26236 22.4962C9.26008 22.234 9.36087 21.9814 9.54303 21.7928L17.586 13.7498L9.54303 5.70679C9.35556 5.51926 9.25024 5.26495 9.25024 4.99979C9.25024 4.73462 9.35556 4.48031 9.54303 4.29279Z" fill="#292D33"/>
</svg>
