<svg width="42" height="42" viewBox="0 0 42 42" fill="none" xmlns="http://www.w3.org/2000/svg">
<path d="M12.8722 5.86552C14.3044 4.7809 16.0527 4.1959 17.8492 4.20022C18.3532 4.20022 18.7543 4.46272 18.9874 4.64332C19.2478 4.84912 19.4914 5.11162 19.7098 5.37412C19.8647 5.5622 19.9493 5.79829 19.9492 6.04192V13.6502H17.6707C17.423 12.9496 16.9356 12.3592 16.2947 11.9832C15.6538 11.6072 14.9006 11.4699 14.1682 11.5956C13.4358 11.7212 12.7715 12.1018 12.2925 12.6699C11.8136 13.238 11.5509 13.9571 11.5509 14.7002C11.5509 15.4433 11.8136 16.1624 12.2925 16.7306C12.7715 17.2987 13.4358 17.6792 14.1682 17.8049C14.9006 17.9305 15.6538 17.7932 16.2947 17.4172C16.9356 17.0413 17.423 16.4508 17.6707 15.7502H19.9492V35.5217C19.9493 35.6772 19.9149 35.8307 19.8484 35.9713C19.782 36.1118 19.6851 36.2359 19.5649 36.3344C18.5947 37.1282 17.2969 37.8002 15.7492 37.8002C13.2586 37.8002 11.4043 36.5444 10.2052 35.0429C9.34371 33.9731 8.75365 32.7108 8.48532 31.3637C7.66943 31.1462 6.91294 30.7478 6.27192 30.1982C5.11272 29.2049 4.19922 27.5942 4.19922 25.2002C4.19922 24.0305 4.27692 22.9742 4.45122 22.0502H11.0242C12.3598 22.0502 13.4602 23.0477 13.6282 24.3371C12.9299 24.5899 12.3433 25.0812 11.972 25.7244C11.6007 26.3677 11.4687 27.1214 11.5992 27.8525C11.7296 28.5837 12.1143 29.2452 12.6851 29.7203C13.2559 30.1954 13.9763 30.4535 14.719 30.4491C15.4617 30.4446 16.1789 30.1779 16.744 29.696C17.3091 29.2141 17.6858 28.5481 17.8076 27.8154C17.9293 27.0828 17.7882 26.3307 17.4093 25.692C17.0304 25.0532 16.438 24.5689 15.7366 24.3245C15.6481 23.1353 15.1132 22.0235 14.2392 21.2122C13.3652 20.4009 12.2167 19.9501 11.0242 19.9502H5.12532C5.44662 19.3244 5.87712 18.7952 6.43782 18.4193C6.57965 18.3254 6.72849 18.2426 6.88302 18.1715C6.28662 16.4243 6.44202 14.3789 7.01742 12.7724C7.38492 11.7392 7.96872 10.7627 8.77092 10.1117C9.30012 9.68122 9.93012 9.39772 10.6189 9.34312C10.9213 7.90882 11.7718 6.72232 12.8743 5.86552H12.8722ZM22.0492 30.4502H23.6242C24.8774 30.4502 26.0792 29.9524 26.9653 29.0663C27.8514 28.1802 28.3492 26.9784 28.3492 25.7252V21.8717C29.0498 21.624 29.6402 21.1366 30.0162 20.4957C30.3922 19.8548 30.5295 19.1016 30.4039 18.3692C30.2782 17.6368 29.8977 16.9725 29.3296 16.4935C28.7614 16.0146 28.0423 15.7519 27.2992 15.7519C26.5561 15.7519 25.837 16.0146 25.2689 16.4935C24.7008 16.9725 24.3202 17.6368 24.1946 18.3692C24.0689 19.1016 24.2062 19.8548 24.5822 20.4957C24.9582 21.1366 25.5486 21.624 26.2492 21.8717V25.7252C26.2492 27.1742 25.0732 28.3502 23.6242 28.3502H22.0492V6.04192C22.0491 5.79829 22.1338 5.5622 22.2886 5.37412C22.5049 5.11162 22.7506 4.84912 23.011 4.64332C23.242 4.46272 23.6431 4.20022 24.1492 4.20022C25.9457 4.1959 27.6941 4.7809 29.1262 5.86552C30.2287 6.72232 31.0792 7.90882 31.3795 9.34312C32.0683 9.39562 32.6983 9.68122 33.2275 10.1117C34.0297 10.7627 34.6135 11.7392 34.981 12.7724C35.5564 14.3789 35.7118 16.4264 35.1154 18.1694C35.2666 18.2408 35.4157 18.3248 35.5606 18.4214C36.1381 18.8057 36.577 19.3559 36.9004 20.0048C37.5367 21.2753 37.7992 23.0477 37.7992 25.2002C37.7992 27.5963 36.8857 29.2049 35.7265 30.1982C35.0855 30.7478 34.329 31.1462 33.5131 31.3637C33.3031 32.5355 32.7151 33.8921 31.7932 35.0429C30.5962 36.5444 28.7398 37.8002 26.2492 37.8002C24.7036 37.8002 23.4037 37.1282 22.4356 36.3344C22.315 36.2361 22.2178 36.1121 22.1509 35.9716C22.0841 35.831 22.0494 35.6774 22.0492 35.5217V30.4502ZM14.6992 13.6502C14.4207 13.6502 14.1537 13.7608 13.9568 13.9578C13.7598 14.1547 13.6492 14.4217 13.6492 14.7002C13.6492 14.9787 13.7598 15.2458 13.9568 15.4427C14.1537 15.6396 14.4207 15.7502 14.6992 15.7502C14.9777 15.7502 15.2448 15.6396 15.4417 15.4427C15.6386 15.2458 15.7492 14.9787 15.7492 14.7002C15.7492 14.4217 15.6386 14.1547 15.4417 13.9578C15.2448 13.7608 14.9777 13.6502 14.6992 13.6502ZM14.6992 26.2502C14.4207 26.2502 14.1537 26.3608 13.9568 26.5578C13.7598 26.7547 13.6492 27.0217 13.6492 27.3002C13.6492 27.5787 13.7598 27.8458 13.9568 28.0427C14.1537 28.2396 14.4207 28.3502 14.6992 28.3502C14.9777 28.3502 15.2448 28.2396 15.4417 28.0427C15.6386 27.8458 15.7492 27.5787 15.7492 27.3002C15.7492 27.0217 15.6386 26.7547 15.4417 26.5578C15.2448 26.3608 14.9777 26.2502 14.6992 26.2502ZM27.2992 19.9502C27.5777 19.9502 27.8448 19.8396 28.0417 19.6427C28.2386 19.4458 28.3492 19.1787 28.3492 18.9002C28.3492 18.6217 28.2386 18.3547 28.0417 18.1578C27.8448 17.9608 27.5777 17.8502 27.2992 17.8502C27.0207 17.8502 26.7537 17.9608 26.5568 18.1578C26.3598 18.3547 26.2492 18.6217 26.2492 18.9002C26.2492 19.1787 26.3598 19.4458 26.5568 19.6427C26.7537 19.8396 27.0207 19.9502 27.2992 19.9502Z" fill="#185CFF"/>
</svg>
