<svg width="24" height="24" viewBox="0 0 24 24" fill="none" xmlns="http://www.w3.org/2000/svg">
<path d="M4.28467 10.2948C4.10338 10.4846 4.00399 10.7381 4.00793 11.0005C4.01186 11.263 4.11882 11.5133 4.30572 11.6976C4.49262 11.8819 4.74448 11.9853 5.00695 11.9855C5.26941 11.9858 5.52145 11.8828 5.70867 11.6988L11.0007 6.32883V19.9988C11.0007 20.2641 11.106 20.5184 11.2936 20.7059C11.4811 20.8935 11.7355 20.9988 12.0007 20.9988C12.2659 20.9988 12.5202 20.8935 12.7078 20.7059C12.8953 20.5184 13.0007 20.2641 13.0007 19.9988V6.33483L18.2857 11.6988C18.4729 11.8828 18.7249 11.9858 18.9874 11.9855C19.2499 11.9853 19.5017 11.8819 19.6886 11.6976C19.8755 11.5133 19.9825 11.263 19.9864 11.0005C19.9903 10.7381 19.891 10.4846 19.7097 10.2948L12.8877 3.36983C12.7714 3.25192 12.6328 3.15829 12.48 3.09438C12.3272 3.03047 12.1633 2.99756 11.9977 2.99756C11.8321 2.99756 11.6681 3.03047 11.5153 3.09438C11.3625 3.15829 11.224 3.25192 11.1077 3.36983L4.28467 10.2938V10.2948Z" fill="#292D33"/>
</svg>
