<svg width="24" height="24" viewBox="0 0 24 24" fill="none" xmlns="http://www.w3.org/2000/svg">
<path d="M8.29357 4.29279C8.1061 4.48031 8.00078 4.73462 8.00078 4.99979C8.00078 5.26495 8.1061 5.51926 8.29357 5.70679L14.5866 11.9998L8.29357 18.2928C8.19806 18.385 8.12188 18.4954 8.06947 18.6174C8.01706 18.7394 7.98947 18.8706 7.98832 19.0034C7.98717 19.1362 8.01247 19.2678 8.06275 19.3907C8.11303 19.5136 8.18728 19.6253 8.28117 19.7192C8.37507 19.8131 8.48672 19.8873 8.60962 19.9376C8.73251 19.9879 8.86419 20.0132 8.99697 20.012C9.12975 20.0109 9.26097 19.9833 9.38297 19.9309C9.50498 19.8785 9.61532 19.8023 9.70757 19.7068L16.7076 12.7068C16.895 12.5193 17.0004 12.265 17.0004 11.9998C17.0004 11.7346 16.895 11.4803 16.7076 11.2928L9.70757 4.29279C9.52004 4.10532 9.26573 4 9.00057 4C8.73541 4 8.4811 4.10532 8.29357 4.29279Z" fill="#292D33"/>
</svg>
