<svg width="42" height="42" viewBox="0 0 42 42" fill="none" xmlns="http://www.w3.org/2000/svg">
<path d="M31.0686 24.5C31.5856 24.5 32.0977 24.6018 32.5754 24.7997C33.0531 24.9976 33.4872 25.2876 33.8528 25.6533C34.2184 26.0189 34.5085 26.453 34.7063 26.9307C34.9042 27.4084 35.0061 27.9204 35.0061 28.4375V30.0195C35.0063 30.9655 34.802 31.9003 34.4072 32.7599C34.0125 33.6196 33.4365 34.3837 32.7188 35C29.9801 37.352 26.0583 38.5 21.0008 38.5C15.9433 38.5 12.0268 37.352 9.29331 35C8.57662 34.3841 8.00138 33.6208 7.60693 32.7621C7.21247 31.9034 7.00811 30.9697 7.00781 30.0247V28.4358C7.00828 27.3918 7.42332 26.3907 8.1617 25.6526C8.90007 24.9146 9.90133 24.5 10.9453 24.5H31.0703H31.0686ZM20.8258 3.5105L21.0008 3.5C21.318 3.50001 21.6244 3.61487 21.8634 3.82334C22.1025 4.03181 22.2579 4.31978 22.3011 4.634L22.3133 4.8125L22.3116 6.12325H28.4366C29.4809 6.12325 30.4824 6.53809 31.2208 7.27652C31.9592 8.01494 32.3741 9.01646 32.3741 10.0608V17.9445C32.3741 18.9888 31.9592 19.9903 31.2208 20.7287C30.4824 21.4672 29.4809 21.882 28.4366 21.882H13.5616C12.5173 21.882 11.5158 21.4672 10.7773 20.7287C10.0389 19.9903 9.62406 18.9888 9.62406 17.9445V10.0625C9.62406 9.54527 9.72597 9.03311 9.92395 8.55528C10.1219 8.07745 10.4121 7.6433 10.7779 7.27765C11.1438 6.91199 11.578 6.622 12.056 6.42422C12.5339 6.22645 13.0461 6.12477 13.5633 6.125L19.6883 6.12325V4.8125C19.6884 4.49507 19.8035 4.18842 20.0123 3.94936C20.2211 3.71029 20.5095 3.555 20.8241 3.51225L21.0008 3.5L20.8223 3.51225L20.8258 3.5105ZM17.0616 11.375C16.7672 11.3632 16.4734 11.411 16.198 11.5156C15.9225 11.6201 15.671 11.7792 15.4585 11.9833C15.2461 12.1875 15.077 12.4324 14.9616 12.7035C14.8461 12.9745 14.7866 13.2661 14.7866 13.5608C14.7866 13.8554 14.8461 14.147 14.9616 14.418C15.077 14.6891 15.2461 14.934 15.4585 15.1382C15.671 15.3423 15.9225 15.5014 16.198 15.6059C16.4734 15.7105 16.7672 15.7583 17.0616 15.7465C17.6261 15.7239 18.16 15.4837 18.5515 15.0763C18.943 14.6689 19.1616 14.1258 19.1616 13.5608C19.1616 12.9957 18.943 12.4526 18.5515 12.0452C18.16 11.6378 17.6261 11.3976 17.0616 11.375ZM24.9243 11.375C24.6299 11.3632 24.3362 11.411 24.0607 11.5156C23.7852 11.6201 23.5337 11.7792 23.3213 11.9833C23.1088 12.1875 22.9398 12.4324 22.8243 12.7035C22.7088 12.9745 22.6493 13.2661 22.6493 13.5608C22.6493 13.8554 22.7088 14.147 22.8243 14.418C22.9398 14.6891 23.1088 14.934 23.3213 15.1382C23.5337 15.3423 23.7852 15.5014 24.0607 15.6059C24.3362 15.7105 24.6299 15.7583 24.9243 15.7465C25.4889 15.7239 26.0228 15.4837 26.4143 15.0763C26.8057 14.6689 27.0243 14.1258 27.0243 13.5608C27.0243 12.9957 26.8057 12.4526 26.4143 12.0452C26.0228 11.6378 25.4889 11.3976 24.9243 11.375Z" fill="#185CFF"/>
</svg>
