<svg width="28" height="28" viewBox="0 0 28 28" fill="none" xmlns="http://www.w3.org/2000/svg">
<path d="M18.457 23.2071C18.2695 23.3946 18.0152 23.4999 17.75 23.4999C17.4849 23.4999 17.2306 23.3946 17.043 23.2071L8.29303 14.4571C8.10556 14.2696 8.00024 14.0152 8.00024 13.7501C8.00024 13.4849 8.10556 13.2306 8.29303 13.0431L17.043 4.29308C17.1353 4.19757 17.2456 4.12139 17.3676 4.06898C17.4896 4.01657 17.6209 3.98898 17.7536 3.98783C17.8864 3.98668 18.0181 4.01198 18.141 4.06226C18.2639 4.11254 18.3755 4.18679 18.4694 4.28069C18.5633 4.37458 18.6376 4.48623 18.6879 4.60913C18.7381 4.73202 18.7634 4.8637 18.7623 4.99648C18.7611 5.12926 18.7335 5.26048 18.6811 5.38249C18.6287 5.50449 18.5525 5.61483 18.457 5.70708L10.414 13.7501L18.457 21.7931C18.6445 21.9806 18.7498 22.2349 18.7498 22.5001C18.7498 22.7652 18.6445 23.0196 18.457 23.2071Z" fill="#292D33"/>
</svg>
